<?xml version="1.0" encoding="UTF-8" standalone="no"?>
<!DOCTYPE svg PUBLIC "-//W3C//DTD SVG 1.1//EN" "http://www.w3.org/Graphics/SVG/1.1/DTD/svg11.dtd">
<svg width="100%" height="100%" viewBox="0 0 957 371" version="1.1" xmlns="http://www.w3.org/2000/svg" xmlns:xlink="http://www.w3.org/1999/xlink" xml:space="preserve" xmlns:serif="http://www.serif.com/" style="fill-rule:evenodd;clip-rule:evenodd;stroke-linejoin:round;stroke-miterlimit:2;">
    <g id="logo.png" transform="matrix(1.5,0,0,1.5,-344,-321)">
        <path d="M799.502,424.09C798.719,424.04 790.01,423.48 790.827,419.526C792.13,413.213 794.239,415.192 800.515,413.539C803.027,412.878 833.097,352.482 832.212,350.62C828.834,343.514 791.534,265.04 788.486,262.516C786.387,260.778 748.6,335.334 722.634,382.571C712.516,400.977 675.731,386.98 675.484,393.498C674.952,407.555 683.176,400.469 719.503,401.469C750.602,402.326 753.113,449.813 722.43,455.058C712.655,456.728 594.614,455.429 583.5,455.307C580.75,455.276 559.488,455.042 556.972,433.433C552.332,393.573 602.834,401.437 611.498,401.421C614.259,401.416 613.875,394.1 613.84,393.435C613.682,390.413 576.447,392.909 568.443,391.755C547.238,388.698 557.577,337.19 557.841,336.698C563.232,326.634 578.431,329.121 578.447,329.12C586.411,328.607 572.354,273.001 603.5,272.943C674.644,272.811 674.848,273.358 677.217,274.968C681.524,277.898 681.97,278.202 698.587,336.473C700.023,341.51 700.021,346.334 702.92,341.814C706.369,336.438 777.199,232.55 777.831,230.622C778.35,229.041 783.471,213.422 794.318,217.929C798.078,219.491 799.892,219.137 833.74,300.388C854.007,349.039 857.656,348.077 856.745,352.546C855.237,359.947 871.759,377.727 862.145,398.331C847.802,429.068 819.079,424.07 799.502,424.09Z" style="fill:rgb(247,150,32);"/>
        <path d="M511.991,447.872C512.478,447.979 512.114,449.131 512.602,449.237C514.625,449.681 514.437,448.978 538.498,449.078C539.062,449.08 546.975,449.113 543.213,454.319C542.358,455.502 541.897,456.035 337.498,456C275.185,455.99 266.244,460.024 255.021,426.71C254.027,423.759 233.171,429.86 233.147,412.502C233.085,367.599 231.165,361.353 241.482,351.481C284.139,310.66 275.058,284.092 307.5,284.124C403.269,284.218 405.232,282.642 412.096,290.845C420.303,300.652 414.145,375.385 416.125,387.563C417.078,393.426 485.857,386.981 482.251,391.309C470.809,405.04 471.284,405.62 469.197,423.441C468.974,425.348 466.241,424.853 421.498,424.879C411.013,424.885 406.175,429.1 405.475,418.501C403.45,387.808 379.292,376.414 359.792,387.948C344.99,396.703 343.124,421.351 342.881,424.569C342.701,426.941 324.916,426.083 322.502,426.083C312.421,426.086 308.917,421.709 306.016,431.355C301.848,445.216 291.468,449.204 295.575,449.252C357.514,449.983 363.179,450.069 359.531,446.474C349.941,437.023 346.113,411.115 360.593,397.598C387.742,372.256 412.562,428.099 387.073,447.192C384.36,449.224 389.253,449.115 389.5,449.109C416.938,448.494 489.603,450.656 487.335,447.608C485.183,444.715 469.455,423.568 482.935,402.752C507.154,365.35 542.995,425.049 511.991,447.872Z" style="fill:rgb(17,118,126);"/>
        <path d="M423.934,335.5C424.04,308.005 427.145,288.827 411.511,279.481C400.618,272.969 364.132,277.038 345.456,275.936C341.83,275.722 343.828,247.966 344.238,246.415C348.532,230.168 355.509,232.777 441.5,232.78C526.028,232.783 529.702,230.737 536.228,243.635C538.974,249.063 538.65,379.231 536.519,380.524C532.72,382.829 435.302,381.391 426.501,381.261C423.101,381.211 423.923,378.511 423.934,335.5Z" style="fill:rgb(11,117,124);"/>
        <path d="M714.598,447.867C712.245,448.266 592.652,451.419 581.757,446.074C568.756,439.695 568.013,413.329 590.501,412.929C600.721,412.746 711.324,410.775 718.274,413.984C730.579,419.665 736.056,439.976 714.598,447.867Z" style="fill:rgb(254,253,252);"/>
        <path d="M319.501,298.237C336.792,298.253 356.398,296.672 354.16,302.389C339.836,338.967 333.989,339.107 330.49,339.192C274.994,340.526 271.523,340.016 272.907,335.613C273.076,335.074 294.451,301.339 298.554,299.592C306.506,296.208 306.789,298.312 319.501,298.237Z" style="fill:rgb(254,253,251);"/>
        <path d="M656.5,290.089C665.806,290.494 668.227,289.969 672.52,304.494C678.316,324.101 678.249,323.941 684.121,343.627C686.923,353.022 671.459,350.994 657.505,350.817C655.927,350.797 654.946,351.557 639.847,333.213C636.17,328.746 637.138,294.791 637.234,291.445C637.295,289.283 656.156,290.089 656.5,290.089Z" style="fill:rgb(254,253,252);"/>
        <path d="M364.201,319.347C366.507,314.506 371.948,300.467 376.627,298.942C378.895,298.202 393.071,298.412 394.501,298.433C400.891,298.527 401.962,300.921 401.13,334.488C400.993,340.006 396.601,339.523 360.502,339.262C351.764,339.198 362.869,322.104 364.201,319.347Z" style="fill:rgb(254,253,252);"/>
        <path d="M618.498,290.086C626.942,290.215 626.926,289.991 627.617,290.226C631.085,291.406 629.469,324.501 629.324,327.481C629.243,329.122 625.57,329.449 603.512,329.116C598.666,329.043 601.439,294.044 601.606,293.555C602.717,290.292 617.119,290.104 618.498,290.086Z" style="fill:rgb(254,253,251);"/>
        <path d="M325.116,374.503C324.81,385.502 327.455,387.644 322.57,388.693C305.293,392.403 305.275,385.931 305.271,384.507C305.268,383.324 305.233,370.669 308.372,370.047C323.464,367.057 324.816,373.15 325.116,374.503Z" style="fill:rgb(254,253,252);"/>
        <path d="M242.088,376.501C243.252,364.153 259.75,370.164 260.583,372.468C261.187,374.137 268.935,395.565 245.459,388.697C240.543,387.258 242.091,376.657 242.088,376.501Z" style="fill:rgb(253,253,252);"/>
        <path d="M529.842,407.389C525.91,398.134 525.376,398.668 519.605,390.466C518.871,389.423 520.135,389.054 535.508,389.454C539.031,389.546 540.263,418.838 533.604,422.701C532.513,423.334 532.331,422.45 529.842,407.389Z" style="fill:rgb(19,115,124);"/>
        <path d="M377.535,412.072C394.93,417.43 377.194,444.958 370.325,427.57C365.043,414.199 376.187,412.301 377.535,412.072Z" style="fill:rgb(253,253,252);"/>
        <path d="M496.106,418.381C503.268,403.343 510.77,415.385 510.819,421.496C510.928,434.89 493.782,436.208 496.106,418.381Z" style="fill:rgb(254,253,252);"/>
        <path d="M596.392,437.387C580.371,446.859 577.564,419.042 593.394,422.88C605.241,425.752 597.11,436.443 596.392,437.387Z" style="fill:rgb(247,149,31);"/>
        <path d="M625.327,423.749C639.214,438.548 613.019,445.935 612.552,431.498C612.145,418.908 624.205,423.337 625.327,423.749Z" style="fill:rgb(247,149,31);"/>
        <path d="M715.351,423.72C729.38,438.102 703.159,446.144 702.69,431.494C702.289,418.984 714.234,423.315 715.351,423.72Z" style="fill:rgb(248,150,31);"/>
        <path d="M687.866,435.765C674.23,449.606 666.099,423.134 680.504,422.631C684.965,422.475 692.551,426.452 687.866,435.765Z" style="fill:rgb(248,149,30);"/>
        <path d="M655.331,438.249C635.968,445.269 642.194,416.079 654.594,423.317C664.207,428.928 656.156,437.383 655.331,438.249Z" style="fill:rgb(248,149,31);"/>
    </g>
</svg>
